<svg id="javascript" xmlns="http://www.w3.org/2000/svg" width="120" height="120" viewBox="0 0 120 120">
  <path id="パス_59" data-name="パス 59" d="M0,0H120V120H0Z" fill="#f7df1e"/>
  <path id="パス_60" data-name="パス 60" d="M67.312,162.718l9.183-5.558c1.772,3.141,3.383,5.8,7.249,5.8,3.705,0,6.042-1.45,6.042-7.088V117.529h11.277v38.5c0,11.68-6.846,17-16.835,17-9.021,0-14.258-4.672-16.916-10.311" transform="translate(-35.759 -62.437)"/>
  <path id="パス_61" data-name="パス 61" d="M152.381,160.779l9.182-5.316c2.417,3.947,5.559,6.847,11.116,6.847,4.673,0,7.652-2.336,7.652-5.558,0-3.866-3.061-5.236-8.216-7.491l-2.819-1.209c-8.136-3.463-13.533-7.813-13.533-17,0-8.458,6.444-14.9,16.513-14.9,7.169,0,12.324,2.5,16.029,9.022l-8.78,5.638c-1.933-3.463-4.027-4.833-7.249-4.833-3.3,0-5.4,2.094-5.4,4.833,0,3.383,2.094,4.753,6.927,6.847l2.819,1.208c9.586,4.108,14.983,8.3,14.983,17.721,0,10.15-7.974,15.708-18.688,15.708-10.472,0-17.238-4.994-20.54-11.519" transform="translate(-80.952 -61.706)"/>
</svg>
