<svg id="mysql" xmlns="http://www.w3.org/2000/svg" width="130" height="90" viewBox="0 0 130 90">
  <path id="パス_62" data-name="パス 62" d="M38.672,207.276l3.951,13.033q1.331,4.439,1.11,6.2a86.458,86.458,0,0,0,4.529-19.235h4.751q-3.064,16.947-8.081,24.63-3.908,5.92-8.568,5.92a8.3,8.3,0,0,1-3.063-.76v-2.723a14.29,14.29,0,0,0,2.087.136,4.986,4.986,0,0,0,3.508-1.224,4.494,4.494,0,0,0,1.6-3.348,22.683,22.683,0,0,0-1.243-5.2l-5.5-17.426ZM8.436,199.266l7.237,22.448h.044L23,199.266h5.949q1.954,16.7,2.308,30.551H26.239q-.265-12.946-1.465-24.348H24.73l-7.637,24.348H13.274L5.683,205.468H5.639q-.845,10.951-1.065,24.348H0q.443-16.294,2.219-30.551Z" transform="translate(0 -147.826)" fill="#00758f"/>
  <path id="パス_63" data-name="パス 63" d="M254.542,197.509q11.676,0,11.676,15.163,0,8.239-3.509,12.444a10.388,10.388,0,0,1-1.378,1.365h0l5.509,2.769h-.005l-1.956,3.434-7.173-4.256a13.57,13.57,0,0,1-3.923.537q-5.733,0-8.564-3.394-3.108-3.754-3.107-11.812,0-8.192,3.508-12.4A10.959,10.959,0,0,1,254.542,197.509Zm-23.837.045a13.457,13.457,0,0,1,7.591,2.265l-1.157,2.622a14.463,14.463,0,0,0-5.768-1.266,5.073,5.073,0,0,0-3.55,1.134,3.812,3.812,0,0,0-1.345,2.894c0,1.809,1.268,3.379,3.609,4.7.63.348,1.45.812,2.293,1.294l.175.1.087.05.175.1.087.05.175.1c1.772,1.016,3.44,1.985,3.44,1.985,2.341,1.69,3.508,3.491,3.508,6.458a8.18,8.18,0,0,1-2.8,6.382,10.878,10.878,0,0,1-7.5,2.488,14.846,14.846,0,0,1-8.524-2.853l1.287-2.624a14.4,14.4,0,0,0,6.435,1.809,6.664,6.664,0,0,0,4.24-1.219,4.189,4.189,0,0,0,1.631-3.393c0-1.814-1.241-3.365-3.518-4.665-.591-.331-1.348-.763-2.132-1.213l-.174-.1-.959-.553-.172-.1c-1.537-.889-2.866-1.666-2.866-1.666a7.355,7.355,0,0,1-3.417-6.5,7.668,7.668,0,0,1,2.551-6A9.512,9.512,0,0,1,230.7,197.554Zm44.661.409v26.793h9.455v3.758H270.57V197.963Zm14.709,26.8v.635h-1.04v3.108h-.795V225.4h-1.08v-.635Zm1.919,0,1,2.552.917-2.552h1.126v3.743h-.749v-2.849l-1.044,2.849h-.54l-1.045-2.849h-.04v2.849h-.709v-3.743Zm-37.942-23.5q-6.881,0-6.882,11.542,0,6.61,1.822,9.594h0a5.739,5.739,0,0,0,5.283,2.763q6.881,0,6.882-11.633,0-6.517-1.82-9.505A5.748,5.748,0,0,0,254.052,201.267Z" transform="translate(-165.04 -146.523)" fill="#f29111"/>
  <path id="パス_64" data-name="パス 64" d="M302.546,1.893c1.522-3.8,6.842-.923,8.907.405a14.443,14.443,0,0,0,1.667,1.293c.905.036,1.81.108,2.716.147a17.152,17.152,0,0,1,4.634,1.514,36.831,36.831,0,0,1,14.014,13.805,39.812,39.812,0,0,1,1.847,4.207c.9,2.144,1.919,4.4,2.969,6.423a14.88,14.88,0,0,0,1.485,2.842c.255.371.978.481,1.41.7,1.2.629,2.644,1.107,3.768,1.845a48.579,48.579,0,0,1,5.975,4.541c.688.627,1.157,1.514,1.812,2.177h0v.335c-.582.181-1.161.367-1.742.516-1.267.331-2.39.256-3.619.588a14.361,14.361,0,0,1-2.5.595l.074.075c.469,1.362,3,2.469,4.165,3.283a17.415,17.415,0,0,1,3.765,3.727c.363.368.726.7,1.087,1.068.252.371.323.851.579,1.182h0v.112a1.779,1.779,0,0,1-.679-.5l-.115-.122a2.846,2.846,0,0,0-.363-.339c-.8-.555-1.593-1.219-2.392-1.735-1.374-.886-2.968-1.4-4.379-2.291-.8-.517-1.558-1.105-2.319-1.7a8.565,8.565,0,0,1-1.882-2.251c-.255-.408-.29-.887-.582-1.182.052-.493.5-.639.944-.76l.1-.027a3.7,3.7,0,0,0,.438-.135,16.45,16.45,0,0,1,7.025-1.034h0c-.109-.74-1.92-1.662-2.5-2.1-1.161-.85-2.389-1.738-3.62-2.511a25.521,25.521,0,0,0-2.5-1.032c-.978-.406-3.151-.812-3.693-1.586a20.35,20.35,0,0,1-2.224-4.145l-.175-.4-.175-.4c-.759-1.77-1.7-3.616-2.462-5.428-.4-.884-.58-1.66-1.016-2.508A32.532,32.532,0,0,0,321.7,8.464a22.974,22.974,0,0,0-5.214-2.547c-1.087-.334-2.391-.149-3.55-.405h-.762c-.651-.186-1.194-.887-1.7-1.257a18.257,18.257,0,0,0-3.584-1.846c-.47-.222-1.811-.737-2.279-.331a.583.583,0,0,0-.508.481c-.289.442-.035,1.107.145,1.513A18.3,18.3,0,0,0,306.24,6.95a19.731,19.731,0,0,1,1.81,2.842c.938,2.066,1.376,4.356,2.245,6.422a14.7,14.7,0,0,0,1.3,2.362c.4.556,1.121.958,1.34,1.663.436.738-.653,3.174-.905,3.948a16.262,16.262,0,0,0,.326,9.859l.058.138.058.14c.4.961.821,2,1.876,2.265.073-.073,0-.035.144-.073a21.233,21.233,0,0,1,1.016-5.576,13.837,13.837,0,0,1,1.737-2.507c.363.221.363.887.579,1.328.471,1.144.977,2.4,1.558,3.544a47.4,47.4,0,0,0,4.054,6.718,18.121,18.121,0,0,0,1.883,2.215,4.022,4.022,0,0,1,.833.737h.071v.112c-1.086-.407-1.775-1.55-2.641-2.217a20.9,20.9,0,0,1-4.709-4.944c-.47-1.037-.979-2.031-1.485-3.063h0V32.79c-.217.295-.144.588-.252,1.034-.47,1.845-.108,3.949-1.738,4.612-1.847.777-3.225-1.254-3.8-2.177-1.848-3.063-2.354-8.231-1.051-12.4a10.741,10.741,0,0,1,.834-2.768c-.109-.666-.614-.849-.907-1.257a17.5,17.5,0,0,1-1.338-2.286,44.445,44.445,0,0,1-1.883-4.947c-.255-.663-.327-1.329-.581-1.957a17.343,17.343,0,0,0-1.845-2.768C303.994,6.655,301.568,4.294,302.546,1.893Zm11.876,7.232a2.384,2.384,0,0,0,.334.27l.146.1a1.64,1.64,0,0,1,.5.477,8.451,8.451,0,0,0,.436.776,2.087,2.087,0,0,1-.764,1.845s-.035.039-.07.075c-.289-.592-.543-1.18-.835-1.771a12.457,12.457,0,0,1-1.159-1.514h-.07V9.31a5.7,5.7,0,0,1,1.485-.185Z" transform="translate(-225.557)" fill="#00758f"/>
</svg>
