<svg id="php" xmlns="http://www.w3.org/2000/svg" xmlns:xlink="http://www.w3.org/1999/xlink" width="140" height="73" viewBox="0 0 140 73">
  <defs>
    <radialGradient id="radial-gradient" cx="0.3" cy="0.176" r="1.249" gradientTransform="translate(0.002) scale(0.526 1)" gradientUnits="objectBoundingBox">
      <stop offset="0" stop-color="#fff"/>
      <stop offset="0.5" stop-color="#4c6b97"/>
      <stop offset="1" stop-color="#231f20"/>
    </radialGradient>
  </defs>
  <ellipse id="楕円形_3" data-name="楕円形 3" cx="70" cy="36.5" rx="70" ry="36.5" transform="translate(0 0)" fill="url(#radial-gradient)"/>
  <ellipse id="楕円形_4" data-name="楕円形 4" cx="67.266" cy="33.788" rx="67.266" ry="33.788" transform="translate(2.734 2.712)" fill="#6181b6"/>
  <g id="グループ_39" data-name="グループ 39" transform="translate(20.215 9.545)">
    <path id="パス_65" data-name="パス 65" d="M100.366,55.51,103.7,38.48c.766-3.851.109-6.725-1.859-8.515-1.914-1.736-5.2-2.6-10.008-2.6h-5.8L87.679,18.9a1.127,1.127,0,0,0-.219-.922.987.987,0,0,0-.82-.38H78.656a1.115,1.115,0,0,0-1.094.868l-3.555,18.06A9.614,9.614,0,0,0,71.6,31.321c-2.352-2.658-6.016-4.013-10.992-4.013H45.241a1.115,1.115,0,0,0-1.094.868L36.984,64.838a1.127,1.127,0,0,0,.219.922.987.987,0,0,0,.82.38h8.039a1.115,1.115,0,0,0,1.094-.868l1.75-8.84h5.961a26.406,26.406,0,0,0,7.82-.976,15.532,15.532,0,0,0,5.742-3.417,17.541,17.541,0,0,0,3.391-4.176L70.4,55.185a1.127,1.127,0,0,0,.219.922.987.987,0,0,0,.82.38h7.984a1.115,1.115,0,0,0,1.094-.868l3.938-20.067h5.469c2.352,0,3.008.434,3.227.651.164.163.492.814.109,2.82L90.085,55.239a1.127,1.127,0,0,0,.219.922.987.987,0,0,0,.82.38h8.2A1.519,1.519,0,0,0,100.366,55.51ZM63.4,41.409c-.492,2.549-1.422,4.393-2.789,5.423S57,48.405,54.046,48.405H50.491l2.57-13.125h4.594c3.391,0,4.758.705,5.3,1.3C63.671,37.45,63.835,39.131,63.4,41.409Z" transform="translate(-36.964 -17.6)" fill="#fff"/>
    <path id="パス_66" data-name="パス 66" d="M186.51,39.513c-2.352-2.658-6.016-4.013-10.992-4.013H160.041a1.115,1.115,0,0,0-1.094.868l-7.164,36.608A1.127,1.127,0,0,0,152,73.9a.987.987,0,0,0,.82.38h8.039a1.115,1.115,0,0,0,1.094-.868l1.75-8.84h5.961a26.406,26.406,0,0,0,7.82-.976,15.532,15.532,0,0,0,5.742-3.417,17.488,17.488,0,0,0,3.5-4.339,17.965,17.965,0,0,0,1.914-5.207C189.573,45.913,188.862,42.225,186.51,39.513ZM178.143,49.6c-.492,2.549-1.422,4.393-2.789,5.423s-3.609,1.573-6.562,1.573h-3.555l2.57-13.125H172.4c3.391,0,4.758.705,5.3,1.3C178.471,45.642,178.635,47.323,178.143,49.6Z" transform="translate(-88.983 -25.792)" fill="#fff"/>
  </g>
  <g id="グループ_40" data-name="グループ 40" transform="translate(21.328 10.63)">
    <path id="パス_67" data-name="パス 67" d="M58.578,43.3c3.062,0,5.086.542,6.125,1.681s1.258,3.037.711,5.749c-.547,2.82-1.641,4.881-3.227,6.074S58.2,58.6,54.969,58.6H50.1L53.109,43.3ZM39,74.108h8.039L48.953,64.4h6.891a24.1,24.1,0,0,0,7.492-.976,14.387,14.387,0,0,0,5.359-3.2,16.3,16.3,0,0,0,3.281-4.068,15.739,15.739,0,0,0,1.75-4.881c.875-4.339.219-7.7-1.914-10.142S66.289,37.5,61.641,37.5H46.164Z" transform="translate(-39 -27.792)" fill="#000004"/>
    <path id="パス_68" data-name="パス 68" d="M107.364,19.6h7.984l-1.914,9.708h7.109c4.484,0,7.547.759,9.242,2.332s2.188,4.068,1.531,7.539l-3.336,17.03h-8.094l3.172-16.216c.383-1.844.219-3.091-.383-3.742s-1.969-1.03-3.992-1.03h-6.4l-4.1,20.989H100.2Z" transform="translate(-66.731 -19.6)" fill="#000004"/>
    <path id="パス_69" data-name="パス 69" d="M173.278,43.3c3.062,0,5.086.542,6.125,1.681s1.258,3.037.711,5.749c-.547,2.82-1.641,4.881-3.227,6.074s-3.992,1.79-7.219,1.79H164.8L167.809,43.3ZM153.7,74.108h8.039l1.914-9.708h6.891a24.1,24.1,0,0,0,7.492-.976,14.386,14.386,0,0,0,5.359-3.2,16.3,16.3,0,0,0,3.281-4.068,15.739,15.739,0,0,0,1.75-4.881c.875-4.339.219-7.7-1.914-10.142S180.989,37.5,176.341,37.5H160.864Z" transform="translate(-90.973 -27.792)" fill="#000004"/>
  </g>
</svg>
